<svg width="123" height="117" xmlns="http://www.w3.org/2000/svg" xmlns:xlink="http://www.w3.org/1999/xlink"><svg width="18" height="13" x="81" y="85" xmlns="http://www.w3.org/2000/svg"><g fill="#adadad"><path d="M12.877 8c.16 0 .32-.057.445-.19l2.491-2.674a.678.678 0 0 0 0-.936c-.249-.267-.64-.267-.872 0l-2.064 2.196-.818-.878c-.25-.267-.64-.267-.872 0-.25.267-.25.687 0 .935l1.245 1.337c.125.153.285.21.445.21z"/><path d="M10.874 4.362C10.278 1.559 7.636-.315 4.834.044 2.045.402.031 2.863.08 5.6c0 .244-.065 5.41-.081 7.12 0 .228.242.359.435.228l3.19-2.264c.918.342 1.9.44 2.867.277 3.03-.538 5.043-3.536 4.382-6.6zM5.88 8.027a.436.436 0 0 1-.338.147.47.47 0 0 1-.467-.472.47.47 0 0 1 .467-.473c.274 0 .483.196.483.456-.016.13-.048.261-.145.342zm.516-2.688l-.161.13c-.145.13-.29.261-.306.473-.017.163-.017.326-.017.505 0 .033 0 .065-.016.081 0 0-.016.017-.08.017h-.661c-.048 0-.064-.017-.064-.065-.016-.359 0-.766.129-1.06.096-.211.274-.358.45-.488.146-.098.275-.212.387-.359.194-.277.161-.489.097-.619-.113-.212-.354-.342-.628-.342-.355 0-.629.212-.741.57-.033.114-.049.13-.097.13h-.097c-.193-.032-.386-.048-.596-.08-.064 0-.08-.034-.08-.082.08-.848.886-1.288 1.643-1.288.435 0 .854.147 1.144.391.274.245.435.57.435.913 0 .489-.387.847-.741 1.173z"/><path d="M17.913 5.6C17.965 2.863 15.8.403 12.747.045 10.967-.167 9.24.387 8 1.445a6.7 6.7 0 0 1 .646.897 5.005 5.005 0 0 1 3.961-1.255c2.409.294 4.206 2.216 4.171 4.497 0 .196.035 3.307.07 5.605l-2.6-1.695-.559.196a5.034 5.034 0 0 1-2.513.212 4.71 4.71 0 0 1-2.53-1.206c-.105.163-.21.326-.332.489-.105.13-.21.277-.314.407a6.138 6.138 0 0 0 2.967 1.369 6.286 6.286 0 0 0 3.106-.277l3.456 2.264c.192.13.471 0 .471-.228-.017-1.71-.087-6.875-.087-7.12z"/></g></svg><svg width="9" height="16" x="95" y="65" xmlns="http://www.w3.org/2000/svg"><path d="M4.447 16c-2.205 0-4-1.958-4-4.364V4.364H1.78v7.273c0 1.604 1.196 2.91 2.667 2.91 1.47 0 2.667-1.306 2.667-2.91V3.273c0-1.003-.748-1.819-1.667-1.819S3.78 2.27 3.78 3.273v6.909c0 .4.3.727.667.727.368 0 .667-.326.667-.727V4.364h1.333v5.818c0 1.203-.897 2.182-2 2.182s-2-.979-2-2.182v-6.91c0-1.804 1.346-3.272 3-3.272s3 1.468 3 3.273v8.363c0 2.407-1.794 4.364-4 4.364z" fill="#737C76" fill-opacity=".55"/></svg><svg width="23" height="25" x="52" y="48" xmlns="http://www.w3.org/2000/svg"><path d="M21.725 18.41c-.475.972-1.499 1.593-2.624 1.59H3.897c-1.123-.001-2.145-.62-2.623-1.59a2.659 2.659 0 0 1 .395-2.937l1.742-2c.472-.539.73-1.218.73-1.92v-1.552c0-2.807 1.727-5.5 4.2-6.66v-.34A2.946 2.946 0 0 1 9.455.71a3.262 3.262 0 0 1 2.559-.667c1.534.281 2.638 1.566 2.624 3.055v.25c2.504 1.2 4.2 3.837 4.2 6.654v1.553c.001.702.263 1.381.736 1.92l1.751 2c.723.82.878 1.967.399 2.936zm-18.554-.85a.79.79 0 0 0 .727.44H19.1a.79.79 0 0 0 .732-.436.722.722 0 0 0-.128-.814l-1.748-2a4.867 4.867 0 0 1-1.218-3.196V10c0-2.25-1.447-4.33-3.515-5.062a1.004 1.004 0 0 1-.684-.937v-.893c.02-.513-.343-.97-.867-1.092a1.153 1.153 0 0 0-.183-.015c-.58 0-1.05.447-1.05 1v1c0 .423-.28.8-.698.942C7.744 5.616 6.24 7.79 6.24 10v1.553a4.867 4.867 0 0 1-1.218 3.196l-1.743 2a.722.722 0 0 0-.11.81zM9 23h4a1 1 0 1 1 0 2H9a1 1 0 1 1 0-2zM.999 12a.945.945 0 0 1-.706-.33A1.2 1.2 0 0 1 0 10.875c-.002-2.425.637-4.796 1.835-6.81L2.17 3.5c.306-.517.926-.657 1.385-.312.46.345.583 1.044.278 1.562l-.338.562C2.52 6.96 1.997 8.895 1.997 10.875a1.2 1.2 0 0 1-.292.795.945.945 0 0 1-.706.33zM23 10.874c0 .623-.447 1.126-1 1.126-.553 0-1-.503-1-1.126.001-1.978-.52-3.914-1.495-5.56h.001l-.338-.564c-.306-.516-.182-1.215.278-1.56.459-.346 1.08-.206 1.386.312h.001l.335.562C22.364 6.08 23.003 8.45 23 10.874z" fill="#737C76"/></svg><svg width="52" height="50" xmlns="http://www.w3.org/2000/svg"><defs><filter x="-13.1%" y="-72.8%" width="126.3%" height="245.7%" filterUnits="objectBoundingBox" id="a"><feOffset dy="2" in="SourceAlpha" result="shadowOffsetOuter1"/><feGaussianBlur stdDeviation="7.5" in="shadowOffsetOuter1" result="shadowBlurOuter1"/><feColorMatrix values="0 0 0 0 0 0 0 0 0 0 0 0 0 0 0 0 0 0 0.255736451 0" in="shadowBlurOuter1" result="shadowMatrixOuter1"/><feMerge><feMergeNode in="shadowMatrixOuter1"/><feMergeNode in="SourceGraphic"/></feMerge></filter></defs><g filter="url(#a)" transform="translate(2 -1)" fill="#FFF"><path d="M20.083 35.238l-7.596-7.744v-8.291l7.596 7.746 15.404-15.711v8.29z"/></g></svg><svg width="24" height="24" x="52" y="73" xmlns="http://www.w3.org/2000/svg"><g fill="none" fill-rule="evenodd"><rect fill="#4daae8" width="24" height="24" rx="4"/><path d="M8.637 19L4 14.333l1.545-1.555 3.092 3.112L19.455 5 21 6.556z" fill="#F2F3F5"/></g></svg><svg width="24" height="24" x="81" xmlns="http://www.w3.org/2000/svg"><rect width="24" height="24" rx="4" fill="#F3F3F3" fill-rule="evenodd"/></svg><svg width="7" height="4" x="95" y="81" xmlns="http://www.w3.org/2000/svg"><path d="M3.539 4L7 0H0z" fill="#7C7E81"/></svg><svg width="6" height="11" x="99" y="85" xmlns="http://www.w3.org/2000/svg"><path fill="#87898C" d="M6 5.5l-.412-.466L1.132 0 0 .933 4.044 5.5 0 10.067 1.132 11l4.456-5.034z"/></svg><svg width="7" height="4" x="65" y="38" xmlns="http://www.w3.org/2000/svg"><path d="M3.539 4L7 0H0z" fill="#2B464F"/></svg><svg width="7" height="4" x="72" y="38" xmlns="http://www.w3.org/2000/svg"><path d="M3.539 4L7 0H0z" fill="#fff"/></svg><svg width="50" height="51" y="50" xmlns="http://www.w3.org/2000/svg"><defs><filter x="-13.1%" y="-72.8%" width="126.3%" height="245.7%" filterUnits="objectBoundingBox" id="b"><feOffset dy="2" in="SourceAlpha" result="shadowOffsetOuter1"/><feGaussianBlur stdDeviation="7.5" in="shadowOffsetOuter1" result="shadowBlurOuter1"/><feColorMatrix values="0 0 0 0 0 0 0 0 0 0 0 0 0 0 0 0 0 0 0.255736451 0" in="shadowBlurOuter1" result="shadowMatrixOuter1"/><feMerge><feMergeNode in="shadowMatrixOuter1"/><feMergeNode in="SourceGraphic"/></feMerge></filter></defs><g filter="url(#b)" transform="translate(1)" fill="#FFF"><path d="M32.433 11l-8.426 8.426L15.581 11 12 14.581l8.426 8.426L12 31.433 15.581 35l8.426-8.412L32.433 35 36 31.433l-8.412-8.426L36 14.581z"/></g></svg><svg width="20" height="20" x="81" y="45" xmlns="http://www.w3.org/2000/svg"><path d="M11.732 9.96l1.762-1.762a.622.622 0 0 0 0-.88l-.881-.882a.623.623 0 0 0-.881 0L9.97 8.198l-1.761-1.76a.624.624 0 0 0-.883-.002l-.88.881a.622.622 0 0 0 0 .882l1.762 1.76-1.758 1.759a.622.622 0 0 0 0 .88l.88.882a.623.623 0 0 0 .882 0l1.757-1.758 1.77 1.771a.623.623 0 0 0 .883 0l.88-.88a.624.624 0 0 0 0-.882l-1.77-1.771zM9.967 0C4.462 0 0 4.462 0 9.967c0 5.505 4.462 9.967 9.967 9.967 5.505 0 9.967-4.462 9.967-9.967C19.934 4.463 15.472 0 9.967 0zm0 18.065a8.098 8.098 0 1 1 8.098-8.098 8.098 8.098 0 0 1-8.098 8.098z" fill="#F44336"/></svg><svg width="18" height="18" x="105" xmlns="http://www.w3.org/2000/svg"><g fill="none" fill-rule="evenodd"><circle fill="#adadad" cx="9" cy="9" r="9"/><path d="M7.476 13.2h1.75V8.702h1.314l.26-1.405H9.227V6.278c0-.328.227-.673.551-.673h.894V4.2H9.576v.006c-1.714.058-2.066.987-2.097 1.963h-.003v1.128H6.6v1.405h.876V13.2z" fill="#FFF"/></g></svg><svg width="18" height="12" x="105" y="18" xmlns="http://www.w3.org/2000/svg"><path d="M8.352 7.846L0 1.127C0 .046.893 0 .893 0h16.214S18 .046 18 1.127l-8.31 6.72s-.086.042-.222.082c-.15.055-.304.073-.447.07a1.227 1.227 0 0 1-.446-.07 1.488 1.488 0 0 1-.223-.083zm.67 1.538c-.305-.007-.744-.116-1.243-.54C6.822 8.03 0 2 0 2v9s0 1 1.052 1h15.896C18 12 18 11 18 11V2s-6.779 6.031-7.735 6.844c-.5.424-.938.533-1.243.54z" fill="#adadad"/></svg><svg width="29" height="19" x="52" xmlns="http://www.w3.org/2000/svg"><path d="M17.07 8.275l9.961-7.246A4.25 4.25 0 0 0 24.25 0H4.246a4.25 4.25 0 0 0-2.781 1.03l10 7.249a4.77 4.77 0 0 0 5.605-.004zM0 4.183V14.73c0 .83.252 1.641.722 2.33l10-7.254a4.76 4.76 0 0 1 .424-.26 5.697 5.697 0 0 1-.424-.28L.654 1.962A4.113 4.113 0 0 0 0 4.183zM28.496 14.73V4.183a4.11 4.11 0 0 0-.654-2.221l-10.034 7.3a4.299 4.299 0 0 1-.424.272c.14.088.28.18.424.276l9.966 7.25c.47-.689.721-1.5.722-2.33zm-4.246 4.183a4.26 4.26 0 0 0 2.683-.924l-9.863-7.192a4.558 4.558 0 0 0-1.168-.61 5.953 5.953 0 0 1-3.278 0 4.695 4.695 0 0 0-1.16.606l-9.9 7.197c.76.602 1.707.929 2.683.924H24.25z" fill="#FFF"/></svg><svg width="18" height="18" x="105" y="30" xmlns="http://www.w3.org/2000/svg"><path d="M14 18H2c-1.105 0-2-.878-2-1.962V2.962C0 1.878.895 1 2 1h8a.66.66 0 0 1 .667.654.66.66 0 0 1-.667.654H2a.66.66 0 0 0-.666.653v13.077c0 .174.07.34.195.463a.673.673 0 0 0 .471.191h12a.674.674 0 0 0 .472-.191.647.647 0 0 0 .195-.463V9.5a.66.66 0 0 1 .667-.654A.66.66 0 0 1 16 9.5v6.538C16 17.122 15.105 18 14 18zm1.39-18a2.61 2.61 0 0 1 1.845 4.456l-8.98 8.98a.68.68 0 0 1-.268.165l-4.09 1.364a.68.68 0 0 1-.862-.862l1.363-4.091a.69.69 0 0 1 .165-.267l8.98-8.98A2.594 2.594 0 0 1 15.39 0z" fill="#adadad" opacity=".45"/></svg><svg width="18" height="15" x="105" y="48" xmlns="http://www.w3.org/2000/svg"><path d="M17.814 4.875c-.67-3.133-3.64-5.227-6.792-4.826-3.134.4-5.397 3.15-5.343 6.21 0 .273-.073 6.046-.09 7.958 0 .255.27.4.488.255l3.587-2.532a6.272 6.272 0 0 0 3.224.31c3.405-.6 5.669-3.952 4.926-7.375zM12.2 8.972a.527.527 0 1 1-.38-.892c.308 0 .543.218.543.51-.018.145-.054.29-.163.382zm.58-3.005l-.181.146c-.163.146-.326.291-.344.528-.018.182-.018.364-.018.564 0 .037 0 .073-.019.091 0 0-.018.019-.09.019h-.743c-.054 0-.072-.019-.072-.073-.018-.4 0-.856.145-1.184.108-.237.308-.4.507-.546.163-.11.308-.237.435-.4.217-.31.18-.547.108-.693-.127-.236-.398-.382-.706-.382-.399 0-.707.237-.833.637-.037.128-.055.146-.109.146h-.109c-.217-.037-.434-.055-.67-.091-.072 0-.09-.037-.09-.091.09-.947.996-1.439 1.847-1.439.49 0 .96.164 1.286.437.308.273.49.638.49 1.02 0 .546-.436.947-.834 1.311zM4.09 8.941H2.616c-.212 0-.382.248-.382.559 0 .31.17.559.382.559H4.09c.212 0 .382-.248.382-.559 0-.31-.17-.559-.382-.559zm-.062 2.235H1.545c-.238 0-.427.249-.427.56 0 .31.19.558.427.558h2.499c.237 0 .427-.248.427-.559 0-.31-.206-.559-.443-.559zm-.013 2.236H.455c-.253 0-.455.248-.455.559 0 .31.202.558.455.558h3.56c.253 0 .456-.248.456-.558 0-.31-.203-.56-.456-.56z" fill="#adadad"/></svg><svg width="6" height="10" x="59" y="38" xmlns="http://www.w3.org/2000/svg"><path d="M4.62 5.4L.547 9.473 1 9.925l4.073-4.072.452-.453L1 .875l-.453.452L4.62 5.4z" stroke="#4DAAE8" stroke-width=".8" fill="none"/></svg><svg width="9" height="11" x="44" y="101" xmlns="http://www.w3.org/2000/svg"><g stroke="#4DAAE8" fill="none" fill-rule="evenodd"><path d="M4.82 5.4L.747 9.473l.453.452 4.073-4.072.452-.453L1.2.875l-.453.452L4.82 5.4z" stroke-width=".8"/><path d="M8 .613v9.747" stroke-width="1.5"/></g></svg><svg width="18" height="18" x="105" y="63" xmlns="http://www.w3.org/2000/svg"><path d="M4.743.424l1.48 3.102c.283.705.493 1.34 0 1.833l-1.48 1.55c1.199 2.257 4.16 5.147 6.416 6.416l1.48-1.55c.494-.494 1.199-.283 1.834 0l3.102 1.48c.635.282.494 1.34 0 1.833l-2.326 2.326C11.582 21.08-3.083 6.487.584 2.751L2.98.425c.493-.494 1.48-.635 1.763 0V.424zm3.807 2.89c-.635.141-.847-.776-.283-.916 4.442-1.199 8.532 2.89 7.403 7.331-.211.564-1.128.353-.916-.211.987-3.736-2.468-7.261-6.204-6.204zm1.27 2.538c-.635.212-.847-.705-.283-.846 2.115-.564 4.09 1.34 3.525 3.454-.212.635-1.057.352-.916-.212.352-1.41-.916-2.749-2.327-2.397v.001z" fill="#adadad"/></svg><svg width="18" height="19" x="59" y="19" xmlns="http://www.w3.org/2000/svg"><g fill="#adadad"><path d="M4.48 2.4l1.397 2.93c.267.666.466 1.265 0 1.731L4.48 8.526c1.132 2.13 3.93 4.86 6.06 6.059l1.398-1.465c.466-.466 1.132-.266 1.732 0l2.93 1.398c.6.267.466 1.266 0 1.732l-2.2 2.197C10.938 21.909-2.912 8.127.551 4.598l2.264-2.197c.466-.466 1.398-.6 1.665 0z"/><path d="M12.471 0a.608.608 0 0 0-.503.349L7.08 9.959a.776.776 0 0 0 .002.695c.11.214.312.346.53.346h9.774a.604.604 0 0 0 .53-.346.78.78 0 0 0 .002-.695L13.028.35A.598.598 0 0 0 12.47 0zm-1.019 3.055h2.096l-.262 4.584h-1.572l-.262-4.584zm.262 5.195h1.572v1.833h-1.572V8.25z"/></g></svg><svg width="14" height="20" x="81" y="65" xmlns="http://www.w3.org/2000/svg"><path d="M9.706 14.52a1.444 1.444 0 0 0-.406.36s-.882 1.152-2.003.688c-1.203-.5-2.353-2.51-3.115-4.183-.761-1.673-1.573-3.838-1.176-5.08.365-1.15 1.818-1.081 1.818-1.081.184.008.368-.016.544-.071L3.235.568C2.132 1.079.73 1.8.397 3.738.05 5.776.56 8.706 2.221 12.285c1.661 3.58 3.564 5.862 5.347 6.915 1.69 1 3.15.394 4.244-.109l-2.106-4.57zM5.703 5l.712-.33c.572-.266.82-.944.556-1.517L5.838.715A1.232 1.232 0 0 0 4.203.126l-.63.295L5.704 5zm7.688 12l-1.132-2.438a1.141 1.141 0 0 0-1.515-.556l-.712.33 2.127 4.593.632-.294a1.232 1.232 0 0 0 .6-1.635z" fill="#FFF"/></svg><svg width="16" height="16" y="101" xmlns="http://www.w3.org/2000/svg"><defs><rect id="c" x="0" y="0" width="16" height="16" rx="8"/><filter x="-9.4%" y="-9.4%" width="118.8%" height="118.8%" filterUnits="objectBoundingBox" id="d"><feGaussianBlur stdDeviation=".5" in="SourceAlpha" result="shadowBlurInner1"/><feOffset dy="2" in="shadowBlurInner1" result="shadowOffsetInner1"/><feComposite in="shadowOffsetInner1" in2="SourceAlpha" operator="arithmetic" k2="-1" k3="1" result="shadowInnerInner1"/><feColorMatrix values="0 0 0 0 0 0 0 0 0 0 0 0 0 0 0 0 0 0 0.0590183424 0" in="shadowInnerInner1"/></filter></defs><g fill="none" fill-rule="evenodd"><use fill="#FFF" xlink:href="#c"/><use fill="#000" filter="url(#d)" xlink:href="#c"/><rect stroke="#1B63DC" stroke-linejoin="square" x=".5" y=".5" width="15" height="15" rx="7.5"/><circle fill="#1B63DC" cx="8" cy="8" r="3"/></g></svg><svg width="16" height="16" x="16" y="101" xmlns="http://www.w3.org/2000/svg"><defs><rect id="e" x="0" y="0" width="16" height="16" rx="8"/><filter x="-9.4%" y="-9.4%" width="118.8%" height="118.8%" filterUnits="objectBoundingBox" id="f"><feGaussianBlur stdDeviation=".5" in="SourceAlpha" result="shadowBlurInner1"/><feOffset dy="2" in="shadowBlurInner1" result="shadowOffsetInner1"/><feComposite in="shadowOffsetInner1" in2="SourceAlpha" operator="arithmetic" k2="-1" k3="1" result="shadowInnerInner1"/><feColorMatrix values="0 0 0 0 0 0 0 0 0 0 0 0 0 0 0 0 0 0 0.0590183424 0" in="shadowInnerInner1"/></filter></defs><g fill="none" fill-rule="evenodd"><use fill="#FFF" xlink:href="#e"/><use fill="#000" filter="url(#f)" xlink:href="#e"/><rect stroke="#B4BFC9" stroke-linejoin="square" x=".5" y=".5" width="15" height="15" rx="7.5"/></g></svg><svg width="15" height="18" x="105" y="81" xmlns="http://www.w3.org/2000/svg"><path d="M4.229 6.004c1.1.285 2.199.425 3.283.425 1.088 0 2.164-.14 3.214-.425a.39.39 0 0 0 .278-.268.37.37 0 0 0-.085-.367c-.796-.857-1.002-2.263-1.103-3.662a.46.46 0 0 0-.017-.082C9.545.81 8.591.245 7.474.245c-1.115 0-2.07.565-2.324 1.38-.005.016-.008.035-.013.054-.23 1.52-.525 3.02-1.115 3.698a.384.384 0 0 0-.076.37.41.41 0 0 0 .283.257zm10.613 4.769l-2.823 6.903a.404.404 0 0 1-.376.245l-8.336.001a.404.404 0 0 1-.376-.245L.108 10.774a.384.384 0 0 1 .041-.362.41.41 0 0 1 .336-.172h2.277v-.768c0-1.161 1.043-2.107 2.324-2.107h.62c.141 0 .27.07.348.187L7.48 9.828 8.9 7.552a.41.41 0 0 1 .348-.187h.619c1.281 0 2.325.947 2.325 2.107v.768h2.276c.134 0 .259.062.336.172.069.104.085.24.037.36z" fill="#adadad"/></svg><svg width="20" height="21" x="81" y="24" xmlns="http://www.w3.org/2000/svg"><path d="M20 7.648h-7.588L10 0 7.588 7.648H0l6.47 4.704L3.53 20 10 15.294 16.47 20l-2.94-7.648z" fill="#E4D821" stroke="#BCBD47"/></svg><svg width="7" height="29" x="52" y="19" xmlns="http://www.w3.org/2000/svg"><path d="M3.5 22a3.5 3.5 0 1 1-.002 7.002A3.5 3.5 0 0 1 3.5 22m0-11a3.5 3.5 0 1 1-.002 7.002A3.5 3.5 0 0 1 3.5 11m0-11a3.5 3.5 0 1 1-.002 7.002A3.5 3.5 0 0 1 3.5 0" fill="#87898C"/></svg><svg width="12" height="12" x="32" y="101" xmlns="http://www.w3.org/2000/svg"><path d="M12 .897L11.103 0 6 5.103.897 0 0 .897 5.103 6 0 11.103.897 12 6 6.897 11.103 12l.897-.897L6.897 6z" fill="#101B22"/></svg></svg>