<svg width="629" height="230" xmlns="http://www.w3.org/2000/svg"><path d="M205.791 179.156h-36.148v46.612h-50.1v-46.612H0v-34.563L104.64 3.805h53.905L61.515 137.3h59.613V95.76h48.515v41.54h36.148v41.856zm105.062 50.417c-18.39 0-34.774-4.545-49.148-13.635-14.375-9.09-25.632-22.249-33.77-39.478-8.14-17.228-12.208-37.786-12.208-61.674 0-23.887 4.069-44.445 12.208-61.673 8.138-17.23 19.395-30.388 33.77-39.478C276.079 4.545 292.462 0 310.853 0c18.392 0 34.775 4.545 49.15 13.635 14.374 9.09 25.63 22.249 33.77 39.478 8.138 17.228 12.207 37.786 12.207 61.673 0 23.888-4.069 44.446-12.208 61.674-8.138 17.229-19.395 30.388-33.77 39.478-14.374 9.09-30.757 13.635-49.149 13.635zm0-43.441c13.53 0 24.152-5.814 31.868-17.44 7.716-11.627 11.574-29.595 11.574-53.906 0-24.31-3.858-42.278-11.574-53.905-7.716-11.626-18.338-17.44-31.868-17.44-13.317 0-23.834 5.814-31.55 17.44-7.716 11.627-11.574 29.595-11.574 53.905 0 24.31 3.858 42.279 11.574 53.906 7.716 11.626 18.233 17.44 31.55 17.44zM629 179.156h-36.148v46.612h-50.1v-46.612H423.209v-34.563L527.849 3.805h53.905L484.724 137.3h59.613V95.76h48.515v41.54H629v41.856z" fill="#2F425C" fill-opacity=".064"/></svg>