<svg width="16" height="16" xmlns="http://www.w3.org/2000/svg" xmlns:xlink="http://www.w3.org/1999/xlink"><defs><path d="M13.974 1.486v-.23a1.26 1.26 0 0 0-2.519 0v.23H4.544v-.23a1.261 1.261 0 0 0-2.52 0v.23H1.25C.562 1.486 0 2.051 0 2.742v12.002C0 15.434.563 16 1.25 16h13.5c.688 0 1.25-.565 1.25-1.256V2.742c0-.69-.563-1.256-1.25-1.256h-.776zm-2.018-.23c0-.415.336-.753.75-.753h.019c.413 0 .75.338.75.753v2.233a.753.753 0 0 1-.75.753h-.019a.752.752 0 0 1-.75-.753V1.256zm-9.432 0c0-.415.336-.753.75-.753h.019c.413 0 .75.338.75.753v2.233a.753.753 0 0 1-.75.753h-.019a.752.752 0 0 1-.75-.753V1.256zM15 14.744a.254.254 0 0 1-.25.251H1.25a.254.254 0 0 1-.25-.251V5.92h14v8.824z" id="a"/></defs><g fill="none" fill-rule="evenodd"><mask id="b" fill="#fff"><use xlink:href="#a"/></mask><use fill="#000" xlink:href="#a"/><g mask="url(#b)" fill="#818181"><path d="M0 0h16v16H0z"/></g></g></svg>